<?xml version="1.0" encoding="utf-8"?>
<!-- Generator: Adobe Illustrator 27.0.0, SVG Export Plug-In . SVG Version: 6.00 Build 0)  -->
<svg version="1.1" id="圖層_1" xmlns="http://www.w3.org/2000/svg" xmlns:xlink="http://www.w3.org/1999/xlink" x="0px" y="0px"
	 viewBox="0 0 16 16" style="enable-background:new 0 0 16 16;" xml:space="preserve">
<style type="text/css">
	.st0{fill:#FFFFFF;}
</style>
<path class="st0" d="M8,1.5c-3,0-5.6,1.7-6.3,4.1H1.1c-0.6,0-1,0.4-1,1c0,0.1,0,0.1,0,0.2l0.3,1.5C0.5,9,1.1,9.5,1.8,9.5h0.3
	c0.3,0.5,0.7,1,1.1,1.4l-0.7,2.5c-0.1,0.3,0.1,0.5,0.3,0.6c0,0,0.1,0,0.1,0h2c0.2,0,0.4-0.1,0.5-0.3L6,12.3c0.6,0.2,1.3,0.3,2,0.3
	c0.7,0,1.4-0.1,2-0.3l0.5,1.4c0.1,0.2,0.3,0.3,0.5,0.3h2c0.3,0,0.5-0.2,0.5-0.5c0,0,0-0.1,0-0.1l-0.8-2.5c1.1-1,1.8-2.3,1.8-3.8
	c0-0.1,0-0.3,0-0.4c0.3-0.1,0.5-0.3,0.7-0.4C15.5,6.5,16,6.5,16,5.8c0,0.2-0.5,0.2-0.5,0c0-0.1,0.1-0.2,0.1-0.3c0-0.2,0-0.5-0.2-0.6
	c-0.2-0.2-0.5-0.2-0.7-0.1c-0.2,0.1-0.3,0.3-0.4,0.6c0,0.2,0.1,0.5,0.3,0.7c-0.1,0.1-0.2,0.1-0.3,0.2C13.9,3.5,11.1,1.5,8,1.5
	 M15.1,5.4c0,0.1-0.1,0.1-0.1,0.2l0,0c-0.1-0.1-0.2-0.2-0.2-0.2c0-0.1,0.1-0.1,0.1-0.2c0,0,0.1,0,0.1,0C15.1,5.3,15.2,5.3,15.1,5.4
	 M6.1,4.8C5.9,4.8,5.6,4.7,5.5,4.4s0.1-0.5,0.3-0.6c0,0,0,0,0,0C6.5,3.6,7.3,3.5,8,3.5c0.8,0,1.5,0.1,2.2,0.3
	c0.3,0.1,0.4,0.4,0.3,0.6c-0.1,0.3-0.4,0.4-0.6,0.3l0,0C9.2,4.6,8.6,4.5,8,4.5C7.3,4.5,6.7,4.6,6.1,4.8L6.1,4.8z M5,6.3
	C5,6.7,4.7,7,4.2,7S3.5,6.7,3.5,6.3s0.3-0.8,0.8-0.8S5,5.8,5,6.3"/>
</svg>
